<svg width="140" height="35" viewBox="0 0 140 35" fill="none" xmlns="http://www.w3.org/2000/svg">
<path opacity="0.1" fill-rule="evenodd" clip-rule="evenodd" d="M1.00989 23.3759C1.00989 23.3759 6.42216 22.5829 12.5756 24.488C24.2791 28.1114 24.9467 21.4761 29.2865 18.2767C33.2569 15.3496 36.5452 17.1355 40.9659 20.7151C44.2264 23.3552 48.9782 27.787 53.8992 27.0735C58.3975 26.4213 61.5864 21.2236 67.8215 19.9017C72.7632 18.854 76.7791 21.7322 82.4695 20.7151C90.189 19.3354 93.6372 11.2124 99.1543 11.2124C105.964 11.2124 110.758 4.34229 116.953 4.34229C123.111 4.34229 123.946 8.38208 130.683 11.2124C135.832 13.3762 138.31 11.2124 138.31 11.2124V34.3991H1.00989V23.3759Z" fill="url(#paint0_linear_2_2739)"/>
<path d="M1.00989 19.7745C1.00989 19.7745 6.42216 18.9929 12.5756 20.8705C24.2791 24.4414 24.9467 17.9022 29.2865 14.7491C33.2569 11.8644 36.5452 13.6244 40.9659 17.1522C44.2264 19.7541 48.9782 24.1217 53.8992 23.4186C58.3975 22.7758 61.5864 17.6533 67.8215 16.3505C72.7632 15.318 76.7791 18.1546 82.4695 17.1522C90.189 15.7924 93.6372 7.78703 99.1543 7.78703C105.964 7.78703 110.758 1 116.953 1C123.111 1 123.438 4.99768 130.174 7.78703C135.324 9.91951 138.31 7.78703 138.31 7.78703" stroke="#1B59F8" stroke-width="2" stroke-linecap="round" stroke-linejoin="round"/>
<defs>
<linearGradient id="paint0_linear_2_2739" x1="25.8236" y1="19.5933" x2="25.8236" y2="34.3991" gradientUnits="userSpaceOnUse">
<stop stop-color="#0062FF"/>
<stop offset="1" stop-color="white" stop-opacity="0.01"/>
</linearGradient>
</defs>
</svg>
