<svg width="19" height="20" viewBox="0 0 19 20" fill="none" xmlns="http://www.w3.org/2000/svg">
<path d="M16.0432 10.7809C16.0801 10.4854 16.1078 10.1898 16.1078 9.87578C16.1078 9.56175 16.0801 9.26619 16.0432 8.97064L17.992 7.44668C18.1675 7.30813 18.2137 7.05876 18.1028 6.85556L16.2556 3.65986C16.1448 3.45667 15.8954 3.38278 15.6922 3.45667L13.3924 4.38028C12.9121 4.01084 12.3949 3.70604 11.8315 3.47514L11.4805 1.02757C11.4528 0.805899 11.2588 0.639648 11.0279 0.639648H7.33349C7.10259 0.639648 6.90863 0.805899 6.88092 1.02757L6.52995 3.47514C5.96654 3.70604 5.44932 4.02007 4.96904 4.38028L2.66925 3.45667C2.45681 3.37354 2.21668 3.45667 2.10584 3.65986L0.258616 6.85556C0.138546 7.05876 0.193963 7.30813 0.369449 7.44668L2.31827 8.97064C2.28133 9.26619 2.25362 9.57099 2.25362 9.87578C2.25362 10.1806 2.28133 10.4854 2.31827 10.7809L0.369449 12.3049C0.193963 12.4434 0.147782 12.6928 0.258616 12.896L2.10584 16.0917C2.21668 16.2949 2.46605 16.3688 2.66925 16.2949L4.96904 15.3713C5.44932 15.7407 5.96654 16.0455 6.52995 16.2764L6.88092 18.724C6.90863 18.9457 7.10259 19.1119 7.33349 19.1119H11.0279C11.2588 19.1119 11.4528 18.9457 11.4805 18.724L11.8315 16.2764C12.3949 16.0455 12.9121 15.7315 13.3924 15.3713L15.6922 16.2949C15.9046 16.378 16.1448 16.2949 16.2556 16.0917L18.1028 12.896C18.2137 12.6928 18.1675 12.4434 17.992 12.3049L16.0432 10.7809V10.7809ZM9.18072 13.1084C7.39814 13.1084 5.94807 11.6584 5.94807 9.87578C5.94807 8.09321 7.39814 6.64313 9.18072 6.64313C10.9633 6.64313 12.4134 8.09321 12.4134 9.87578C12.4134 11.6584 10.9633 13.1084 9.18072 13.1084Z" fill="black" fill-opacity="0.7"/>
</svg>
